<svg width="1440" height="762" viewBox="0 0 1440 762" fill="none" xmlns="http://www.w3.org/2000/svg">
<g clip-path="url(#clip0_1_6500)">
<path d="M0 40C0 17.9086 17.9086 0 40 0H1400C1422.09 0 1440 17.9086 1440 40V762H0V40Z" fill="white"/>
<g filter="url(#filter0_f_1_6500)">
<ellipse cx="599.132" cy="579.464" rx="599.132" ry="579.464" transform="matrix(0.390213 -0.920725 -0.945104 -0.326771 389.307 1227.98)" fill="#D1EDF9"/>
</g>
<g filter="url(#filter1_f_1_6500)">
<ellipse cx="612.13" cy="579.464" rx="612.13" ry="579.464" transform="matrix(-0.047214 -0.998885 -0.993371 0.114955 1933.05 1004.32)" fill="#FFD9C1"/>
</g>
<g filter="url(#filter2_f_1_6500)">
<ellipse cx="776.815" cy="331.832" rx="776.815" ry="331.832" transform="matrix(-0.883676 -0.468099 -0.406994 0.913431 1489.58 584.872)" fill="#FFD5FF"/>
</g>
<path opacity="0.05" d="M-97.74 487.11H92.065V528.69H-49.615V600.685H74.74V639.955H-49.615V762H-97.74V487.11ZM106.478 487.11H154.603V762H106.478V487.11ZM187.706 487.11H238.526L364.036 689.62H364.806V487.11H410.621V762H359.801L234.676 559.875H233.521V762H187.706V487.11ZM443.478 487.11H641.368V528.69H491.603V600.685H630.203V639.955H491.603V720.42H644.063V762H443.478V487.11ZM693.553 670.37C693.553 680.893 695.349 689.877 698.943 697.32C702.536 704.763 707.541 710.923 713.958 715.8C720.374 720.42 727.689 723.885 735.903 726.195C744.373 728.248 753.484 729.275 763.238 729.275C773.761 729.275 782.744 728.12 790.188 725.81C797.631 723.243 803.663 720.035 808.283 716.185C812.903 712.335 816.239 707.972 818.293 703.095C820.346 697.962 821.373 692.828 821.373 687.695C821.373 677.172 818.934 669.472 814.058 664.595C809.438 659.462 804.304 655.868 798.658 653.815C788.904 650.222 777.483 646.885 764.393 643.805C751.559 640.468 735.646 636.233 716.653 631.1C704.846 628.02 694.964 624.042 687.008 619.165C679.308 614.032 673.148 608.385 668.528 602.225C663.908 596.065 660.571 589.52 658.518 582.59C656.721 575.66 655.823 568.602 655.823 561.415C655.823 547.555 658.646 535.62 664.293 525.61C670.196 515.343 677.896 506.873 687.393 500.2C696.889 493.527 707.669 488.65 719.733 485.57C731.796 482.233 743.988 480.565 756.308 480.565C770.681 480.565 784.156 482.49 796.733 486.34C809.566 489.933 820.731 495.452 830.228 502.895C839.981 510.338 847.681 519.578 853.328 530.615C858.974 541.395 861.798 553.972 861.798 568.345H813.673C812.389 550.635 806.358 538.187 795.578 531C784.798 523.557 771.066 519.835 754.383 519.835C748.736 519.835 742.961 520.477 737.058 521.76C731.154 522.787 725.764 524.712 720.888 527.535C716.011 530.102 711.904 533.695 708.568 538.315C705.488 542.935 703.948 548.71 703.948 555.64C703.948 565.393 706.899 573.093 712.803 578.74C718.963 584.13 726.919 588.237 736.673 591.06C737.699 591.317 741.678 592.472 748.608 594.525C755.794 596.322 763.751 598.375 772.478 600.685C781.204 602.995 789.674 605.305 797.888 607.615C806.358 609.668 812.389 611.208 815.983 612.235C824.966 615.058 832.794 618.908 839.468 623.785C846.141 628.662 851.659 634.308 856.023 640.725C860.643 646.885 863.979 653.558 866.033 660.745C868.343 667.932 869.498 675.118 869.498 682.305C869.498 697.705 866.289 710.923 859.873 721.96C853.713 732.74 845.499 741.595 835.233 748.525C824.966 755.455 813.288 760.46 800.198 763.54C787.108 766.877 773.761 768.545 760.158 768.545C744.501 768.545 729.743 766.62 715.883 762.77C702.023 758.92 689.959 753.017 679.693 745.06C669.426 737.103 661.213 726.965 655.053 714.645C648.893 702.068 645.684 687.31 645.428 670.37H693.553ZM861.451 487.11H1083.98V528.69H996.586V762H948.461V528.69H861.451V487.11ZM1091.85 487.11H1223.13C1253.42 487.11 1276.14 493.655 1291.28 506.745C1306.42 519.835 1313.99 538.058 1313.99 561.415C1313.99 574.505 1312.07 585.413 1308.22 594.14C1304.37 602.61 1299.88 609.54 1294.74 614.93C1289.61 620.063 1284.48 623.785 1279.34 626.095C1274.47 628.405 1270.87 629.945 1268.56 630.715V631.485C1272.67 631.998 1277.03 633.282 1281.65 635.335C1286.53 637.388 1291.02 640.725 1295.13 645.345C1299.24 649.708 1302.57 655.483 1305.14 662.67C1307.96 669.857 1309.37 678.84 1309.37 689.62C1309.37 705.79 1310.53 720.548 1312.84 733.895C1315.41 746.985 1319.26 756.353 1324.39 762H1272.8C1269.21 756.097 1267.02 749.552 1266.25 742.365C1265.74 735.178 1265.48 728.248 1265.48 721.575C1265.48 708.998 1264.71 698.218 1263.17 689.235C1261.63 679.995 1258.81 672.423 1254.7 666.52C1250.6 660.36 1244.95 655.868 1237.76 653.045C1230.83 650.222 1221.85 648.81 1210.81 648.81H1139.97V762H1091.85V487.11ZM1139.97 612.235H1218.9C1234.3 612.235 1245.98 608.642 1253.93 601.455C1261.89 594.012 1265.87 582.975 1265.87 568.345C1265.87 559.618 1264.59 552.56 1262.02 547.17C1259.45 541.523 1255.86 537.16 1251.24 534.08C1246.88 531 1241.74 528.947 1235.84 527.92C1230.19 526.893 1224.29 526.38 1218.13 526.38H1139.97V612.235ZM1412.46 487.11H1463.67L1569.54 762H1517.95L1492.16 689.235H1382.43L1356.64 762H1306.97L1412.46 487.11ZM1395.52 652.66H1479.45L1438.26 534.465H1437.1L1395.52 652.66Z" fill="black"/>
</g>
<defs>
<filter id="filter0_f_1_6500" x="-864.179" y="-440.398" width="1879.24" height="1854.77" filterUnits="userSpaceOnUse" color-interpolation-filters="sRGB">
<feFlood flood-opacity="0" result="BackgroundImageFix"/>
<feBlend mode="normal" in="SourceGraphic" in2="BackgroundImageFix" result="shape"/>
<feGaussianBlur stdDeviation="172" result="effect1_foregroundBlur_1_6500"/>
</filter>
<filter id="filter1_f_1_6500" x="478.162" y="-429.628" width="1700.72" height="1778.23" filterUnits="userSpaceOnUse" color-interpolation-filters="sRGB">
<feFlood flood-opacity="0" result="BackgroundImageFix"/>
<feBlend mode="normal" in="SourceGraphic" in2="BackgroundImageFix" result="shape"/>
<feGaussianBlur stdDeviation="137" result="effect1_foregroundBlur_1_6500"/>
</filter>
<filter id="filter2_f_1_6500" x="-345.668" y="-263.05" width="2027.49" height="1574.8" filterUnits="userSpaceOnUse" color-interpolation-filters="sRGB">
<feFlood flood-opacity="0" result="BackgroundImageFix"/>
<feBlend mode="normal" in="SourceGraphic" in2="BackgroundImageFix" result="shape"/>
<feGaussianBlur stdDeviation="157" result="effect1_foregroundBlur_1_6500"/>
</filter>
<clipPath id="clip0_1_6500">
<path d="M0 40C0 17.9086 17.9086 0 40 0H1400C1422.09 0 1440 17.9086 1440 40V762H0V40Z" fill="white"/>
</clipPath>
</defs>
</svg>
