<svg width="151" height="42" viewBox="0 0 151 42" fill="none" xmlns="http://www.w3.org/2000/svg">
<circle cx="26.5" cy="21.5" r="16.5" fill="white"/>
<path d="M51.2879 20.5151C51.2879 15.0742 49.1265 9.85603 45.2791 6.00872C41.4318 2.1614 36.2138 7.13492e-07 30.7729 0C25.3319 -7.1349e-07 20.1139 2.1614 16.2666 6.00872C12.4192 9.85603 10.2578 15.0742 10.2578 20.5151H16.6689C18.7933 20.5151 20.4501 18.7348 21.2282 16.7579C21.7391 15.4601 22.5143 14.2673 23.5196 13.2619C25.4433 11.3382 28.0524 10.2575 30.7729 10.2575C33.4933 10.2575 36.1024 11.3382 38.0261 13.2619C39.9497 15.1855 41.0303 17.7946 41.0303 20.5151H51.2879Z" fill="#FF5F5F"/>
<path d="M39.468 28.3663C40.499 25.8773 41.0297 23.2096 41.0297 20.5156H51.2861C51.2861 31.8457 42.1011 41.0306 30.771 41.0306C28.9966 41.0306 27.2748 40.8053 25.6328 40.3819C26.5618 40.1425 27.475 39.8377 28.3653 39.469C30.8543 38.438 33.1159 36.9269 35.0209 35.0219C36.9259 33.1169 38.4371 30.8553 39.468 28.3663Z" fill="#FF5F5F"/>
<path d="M0 20.5156C-3.85411e-07 23.2098 0.530637 25.8774 1.56161 28.3665C2.59259 30.8555 4.10371 33.117 6.00872 35.0221C7.91371 36.9269 10.1753 38.4381 12.6643 39.4691C15.1532 40.5001 17.8209 41.0307 20.5151 41.0307C23.2091 41.0307 25.8768 40.5001 28.3658 39.4691C30.8548 38.4381 33.1163 36.9269 35.0214 35.0221C36.9264 33.117 38.4374 30.8555 39.4684 28.3665C40.4994 25.8774 41.0301 23.2098 41.0301 20.5156H34.6191C32.4947 20.5156 30.8379 22.2959 30.0597 24.2726C30.0376 24.329 30.0149 24.385 29.9917 24.4411C29.4762 25.6856 28.7207 26.8164 27.7681 27.7688C26.8157 28.7213 25.6849 29.4769 24.4404 29.9924C23.196 30.5079 21.8621 30.7732 20.5151 30.7732C19.168 30.7732 17.8342 30.5079 16.5897 29.9924C15.3451 29.4769 14.2144 28.7213 13.2619 27.7688C12.3094 26.8164 11.5538 25.6856 11.0383 24.4411C10.5228 23.1965 10.2575 21.8627 10.2575 20.5156H0Z" fill="#FF5F5F"/>
<path d="M0.00195312 20.5151C0.00195312 9.18486 9.18682 0 20.5169 0C22.2909 0 24.0122 0.225145 25.654 0.648437C22.1311 1.55598 18.8813 3.3926 16.265 6.00873C12.4177 9.856 10.2564 15.0742 10.2564 20.5151H0.00195312Z" fill="#FF5F5F"/>
<path d="M62.111 12.379H73.943V14.971H65.111V19.459H72.863V21.907H65.111V29.515H62.111V12.379ZM76.0255 12.379H78.7615V14.971H76.0255V12.379ZM76.0255 17.107H78.7615V29.515H76.0255V17.107ZM81.7426 17.107H84.3346V18.931L84.3826 18.979C84.7986 18.291 85.3426 17.755 86.0146 17.371C86.6866 16.971 87.4306 16.771 88.2466 16.771C89.6066 16.771 90.6786 17.123 91.4626 17.827C92.2466 18.531 92.6386 19.587 92.6386 20.995V29.515H89.9026V21.715C89.8706 20.739 89.6626 20.035 89.2786 19.603C88.8946 19.155 88.2946 18.931 87.4786 18.931C87.0146 18.931 86.5986 19.019 86.2306 19.195C85.8626 19.355 85.5506 19.587 85.2946 19.891C85.0386 20.179 84.8386 20.523 84.6946 20.923C84.5506 21.323 84.4786 21.747 84.4786 22.195V29.515H81.7426V17.107ZM104.044 22.219C104.012 21.787 103.916 21.371 103.756 20.971C103.612 20.571 103.404 20.227 103.132 19.939C102.876 19.635 102.556 19.395 102.172 19.219C101.804 19.027 101.388 18.931 100.924 18.931C100.444 18.931 100.004 19.019 99.6039 19.195C99.2199 19.355 98.8839 19.587 98.5959 19.891C98.3239 20.179 98.0999 20.523 97.9239 20.923C97.7639 21.323 97.6759 21.755 97.6599 22.219H104.044ZM97.6599 24.019C97.6599 24.499 97.7239 24.963 97.8519 25.411C97.9959 25.859 98.2039 26.251 98.4759 26.587C98.7479 26.923 99.0919 27.195 99.5079 27.403C99.9239 27.595 100.42 27.691 100.996 27.691C101.796 27.691 102.436 27.523 102.916 27.187C103.412 26.835 103.78 26.315 104.02 25.627H106.612C106.468 26.299 106.22 26.899 105.868 27.427C105.516 27.955 105.092 28.403 104.596 28.771C104.1 29.123 103.54 29.387 102.916 29.563C102.308 29.755 101.668 29.851 100.996 29.851C100.02 29.851 99.1559 29.691 98.4039 29.371C97.6519 29.051 97.0119 28.603 96.4839 28.027C95.9719 27.451 95.5799 26.763 95.3079 25.963C95.0519 25.163 94.9239 24.283 94.9239 23.323C94.9239 22.443 95.0599 21.611 95.3319 20.827C95.6199 20.027 96.0199 19.331 96.5319 18.739C97.0599 18.131 97.6919 17.651 98.4279 17.299C99.1639 16.947 99.9959 16.771 100.924 16.771C101.9 16.771 102.772 16.979 103.54 17.395C104.324 17.795 104.972 18.331 105.484 19.003C105.996 19.675 106.364 20.451 106.588 21.331C106.828 22.195 106.892 23.091 106.78 24.019H97.6599ZM110.924 25.531C111.004 26.331 111.308 26.891 111.836 27.211C112.364 27.531 112.996 27.691 113.732 27.691C113.988 27.691 114.276 27.675 114.596 27.643C114.932 27.595 115.244 27.515 115.532 27.403C115.82 27.291 116.052 27.131 116.228 26.923C116.42 26.699 116.508 26.411 116.492 26.059C116.476 25.707 116.348 25.419 116.108 25.195C115.868 24.971 115.556 24.795 115.172 24.667C114.804 24.523 114.38 24.403 113.9 24.307C113.42 24.211 112.932 24.107 112.436 23.995C111.924 23.883 111.428 23.747 110.948 23.587C110.484 23.427 110.06 23.211 109.676 22.939C109.308 22.667 109.012 22.323 108.788 21.907C108.564 21.475 108.452 20.947 108.452 20.323C108.452 19.651 108.612 19.091 108.932 18.643C109.268 18.179 109.684 17.811 110.18 17.539C110.692 17.251 111.252 17.051 111.86 16.939C112.484 16.827 113.076 16.771 113.636 16.771C114.276 16.771 114.884 16.843 115.46 16.987C116.052 17.115 116.58 17.331 117.044 17.635C117.524 17.939 117.916 18.339 118.22 18.835C118.54 19.315 118.74 19.899 118.82 20.587H115.964C115.836 19.931 115.532 19.491 115.052 19.267C114.588 19.043 114.052 18.931 113.444 18.931C113.252 18.931 113.02 18.947 112.748 18.979C112.492 19.011 112.244 19.075 112.004 19.171C111.78 19.251 111.588 19.379 111.428 19.555C111.268 19.715 111.188 19.931 111.188 20.203C111.188 20.539 111.3 20.811 111.524 21.019C111.764 21.227 112.068 21.403 112.436 21.547C112.82 21.675 113.252 21.787 113.732 21.883C114.212 21.979 114.708 22.083 115.22 22.195C115.716 22.307 116.204 22.443 116.684 22.603C117.164 22.763 117.588 22.979 117.956 23.251C118.34 23.523 118.644 23.867 118.868 24.283C119.108 24.699 119.228 25.211 119.228 25.819C119.228 26.555 119.06 27.179 118.724 27.691C118.388 28.203 117.948 28.619 117.404 28.939C116.876 29.259 116.284 29.491 115.628 29.635C114.972 29.779 114.324 29.851 113.684 29.851C112.9 29.851 112.172 29.763 111.5 29.587C110.844 29.411 110.268 29.147 109.772 28.795C109.292 28.427 108.908 27.979 108.62 27.451C108.348 26.907 108.204 26.267 108.188 25.531H110.924ZM120.057 17.107H122.121V13.387H124.857V17.107H127.329V19.147H124.857V25.771C124.857 26.059 124.865 26.307 124.881 26.515C124.913 26.723 124.969 26.899 125.049 27.043C125.145 27.187 125.281 27.299 125.457 27.379C125.633 27.443 125.873 27.475 126.177 27.475C126.369 27.475 126.561 27.475 126.753 27.475C126.945 27.459 127.137 27.427 127.329 27.379V29.491C127.025 29.523 126.729 29.555 126.441 29.587C126.153 29.619 125.857 29.635 125.553 29.635C124.833 29.635 124.249 29.571 123.801 29.443C123.369 29.299 123.025 29.099 122.769 28.843C122.529 28.571 122.361 28.235 122.265 27.835C122.185 27.435 122.137 26.979 122.121 26.467V19.147H120.057V17.107ZM129.297 17.107H131.865V19.507H131.913C131.993 19.171 132.145 18.843 132.369 18.523C132.609 18.203 132.889 17.915 133.209 17.659C133.545 17.387 133.913 17.171 134.313 17.011C134.713 16.851 135.121 16.771 135.537 16.771C135.857 16.771 136.073 16.779 136.185 16.795C136.313 16.811 136.441 16.827 136.569 16.843V19.483C136.377 19.451 136.177 19.427 135.969 19.411C135.777 19.379 135.585 19.363 135.393 19.363C134.929 19.363 134.489 19.459 134.073 19.651C133.673 19.827 133.321 20.099 133.017 20.467C132.713 20.819 132.473 21.259 132.297 21.787C132.121 22.315 132.033 22.923 132.033 23.611V29.515H129.297V17.107ZM148.127 26.755C148.127 27.091 148.167 27.331 148.247 27.475C148.343 27.619 148.519 27.691 148.775 27.691C148.855 27.691 148.951 27.691 149.063 27.691C149.175 27.691 149.303 27.675 149.447 27.643V29.539C149.351 29.571 149.223 29.603 149.063 29.635C148.919 29.683 148.767 29.723 148.607 29.755C148.447 29.787 148.287 29.811 148.127 29.827C147.967 29.843 147.831 29.851 147.719 29.851C147.159 29.851 146.695 29.739 146.327 29.515C145.959 29.291 145.719 28.899 145.607 28.339C145.063 28.867 144.391 29.251 143.591 29.491C142.807 29.731 142.047 29.851 141.311 29.851C140.751 29.851 140.215 29.771 139.703 29.611C139.191 29.467 138.735 29.251 138.335 28.963C137.951 28.659 137.639 28.283 137.399 27.835C137.175 27.371 137.063 26.835 137.063 26.227C137.063 25.459 137.199 24.835 137.471 24.355C137.759 23.875 138.127 23.499 138.575 23.227C139.039 22.955 139.551 22.763 140.111 22.651C140.687 22.523 141.263 22.427 141.839 22.363C142.335 22.267 142.807 22.203 143.255 22.171C143.703 22.123 144.095 22.051 144.431 21.955C144.783 21.859 145.055 21.715 145.247 21.523C145.455 21.315 145.559 21.011 145.559 20.611C145.559 20.259 145.471 19.971 145.295 19.747C145.135 19.523 144.927 19.355 144.671 19.243C144.431 19.115 144.159 19.035 143.855 19.003C143.551 18.955 143.263 18.931 142.991 18.931C142.223 18.931 141.591 19.091 141.095 19.411C140.599 19.731 140.319 20.227 140.255 20.899H137.519C137.567 20.099 137.759 19.435 138.095 18.907C138.431 18.379 138.855 17.955 139.367 17.635C139.895 17.315 140.487 17.091 141.143 16.963C141.799 16.835 142.471 16.771 143.159 16.771C143.767 16.771 144.367 16.835 144.959 16.963C145.551 17.091 146.079 17.299 146.543 17.587C147.023 17.875 147.407 18.251 147.695 18.715C147.983 19.163 148.127 19.715 148.127 20.371V26.755ZM145.391 23.299C144.975 23.571 144.463 23.739 143.855 23.803C143.247 23.851 142.639 23.931 142.031 24.043C141.743 24.091 141.463 24.163 141.191 24.259C140.919 24.339 140.679 24.459 140.471 24.619C140.263 24.763 140.095 24.963 139.967 25.219C139.855 25.459 139.799 25.755 139.799 26.107C139.799 26.411 139.887 26.667 140.063 26.875C140.239 27.083 140.447 27.251 140.687 27.379C140.943 27.491 141.215 27.571 141.503 27.619C141.807 27.667 142.079 27.691 142.319 27.691C142.623 27.691 142.951 27.651 143.303 27.571C143.655 27.491 143.983 27.355 144.287 27.163C144.607 26.971 144.871 26.731 145.079 26.443C145.287 26.139 145.391 25.771 145.391 25.339V23.299Z" fill="#08080C"/>
</svg>
