<svg width="52" height="42" viewBox="0 0 52 42" fill="none" xmlns="http://www.w3.org/2000/svg">
<circle cx="26.5" cy="21.5" r="16.5" fill="white"/>
<path d="M51.2879 20.5151C51.2879 15.0742 49.1265 9.85603 45.2791 6.00872C41.4318 2.1614 36.2138 7.13492e-07 30.7729 0C25.3319 -7.1349e-07 20.1139 2.1614 16.2666 6.00872C12.4192 9.85603 10.2578 15.0742 10.2578 20.5151H16.6689C18.7933 20.5151 20.4501 18.7348 21.2282 16.7579C21.7391 15.4601 22.5143 14.2673 23.5196 13.2619C25.4433 11.3382 28.0524 10.2575 30.7729 10.2575C33.4933 10.2575 36.1024 11.3382 38.0261 13.2619C39.9497 15.1855 41.0303 17.7946 41.0303 20.5151H51.2879Z" fill="#FF5F5F"/>
<path d="M39.468 28.3663C40.499 25.8773 41.0297 23.2096 41.0297 20.5156H51.2861C51.2861 31.8457 42.1011 41.0306 30.771 41.0306C28.9966 41.0306 27.2748 40.8053 25.6328 40.3819C26.5618 40.1425 27.475 39.8377 28.3653 39.469C30.8543 38.438 33.1159 36.9269 35.0209 35.0219C36.9259 33.1169 38.4371 30.8553 39.468 28.3663Z" fill="#FF5F5F"/>
<path d="M0 20.5156C-3.85411e-07 23.2098 0.530637 25.8774 1.56161 28.3665C2.59259 30.8555 4.10371 33.117 6.00872 35.0221C7.91371 36.9269 10.1753 38.4381 12.6643 39.4691C15.1532 40.5001 17.8209 41.0307 20.5151 41.0307C23.2091 41.0307 25.8768 40.5001 28.3658 39.4691C30.8548 38.4381 33.1163 36.9269 35.0214 35.0221C36.9264 33.117 38.4374 30.8555 39.4684 28.3665C40.4994 25.8774 41.0301 23.2098 41.0301 20.5156H34.6191C32.4947 20.5156 30.8379 22.2959 30.0597 24.2726C30.0376 24.329 30.0149 24.385 29.9917 24.4411C29.4762 25.6856 28.7207 26.8164 27.7681 27.7688C26.8157 28.7213 25.6849 29.4769 24.4404 29.9924C23.196 30.5079 21.8621 30.7732 20.5151 30.7732C19.168 30.7732 17.8342 30.5079 16.5897 29.9924C15.3451 29.4769 14.2144 28.7213 13.2619 27.7688C12.3094 26.8164 11.5538 25.6856 11.0383 24.4411C10.5228 23.1965 10.2575 21.8627 10.2575 20.5156H0Z" fill="#FF5F5F"/>
<path d="M0.00195312 20.5151C0.00195312 9.18486 9.18682 0 20.5169 0C22.2909 0 24.0122 0.225145 25.654 0.648437C22.1311 1.55598 18.8813 3.3926 16.265 6.00873C12.4177 9.856 10.2564 15.0742 10.2564 20.5151H0.00195312Z" fill="#FF5F5F"/>
</svg>
