<svg width="174" height="60" viewBox="0 0 174 60" fill="none" xmlns="http://www.w3.org/2000/svg">
<g clip-path="url(#clip0_1_6306)">
<rect width="181" height="60" fill="#FFE0BB"/>
<path d="M-42.998 31.0898L151.451 143.355" stroke="#FFC47D" stroke-width="4"/>
<path d="M-39.0586 24.2617L155.391 136.527" stroke="#FFC47D" stroke-width="4"/>
<path d="M-35.1113 17.4336L159.338 129.699" stroke="#FFC47D" stroke-width="4"/>
<path d="M-31.1719 10.6055L163.277 122.871" stroke="#FFC47D" stroke-width="4"/>
<path d="M-27.2266 3.77734L167.223 116.043" stroke="#FFC47D" stroke-width="4"/>
<path d="M-23.2871 -3.05469L171.162 109.211" stroke="#FFC47D" stroke-width="4"/>
<path d="M-19.3398 -9.88281L175.109 102.382" stroke="#FFC47D" stroke-width="4"/>
<path d="M-15.3984 -16.7109L179.051 95.5543" stroke="#FFC47D" stroke-width="4"/>
<path d="M-11.4551 -23.5391L182.994 88.7262" stroke="#FFC47D" stroke-width="4"/>
<path d="M-7.51367 -30.3672L186.935 81.8981" stroke="#FFC47D" stroke-width="4"/>
<path d="M-3.57031 -37.1992L190.879 75.066" stroke="#FFC47D" stroke-width="4"/>
<path d="M0.371094 -44.0234L194.82 68.2418" stroke="#FFC47D" stroke-width="4"/>
<path d="M4.3125 -50.8516L198.762 61.4137" stroke="#FFC47D" stroke-width="4"/>
<path d="M8.25781 -57.6836L202.707 54.5817" stroke="#FFC47D" stroke-width="4"/>
<path d="M12.1973 -64.5117L206.646 47.7535" stroke="#FFC47D" stroke-width="4"/>
<path d="M16.1426 -71.3398L210.592 40.9254" stroke="#FFC47D" stroke-width="4"/>
<path d="M20.084 -78.168L214.533 34.0973" stroke="#FFC47D" stroke-width="4"/>
<path d="M24.0273 -84.9961L218.476 27.2692" stroke="#FFC47D" stroke-width="4"/>
</g>
<defs>
<clipPath id="clip0_1_6306">
<rect width="174" height="60" rx="30" fill="white"/>
</clipPath>
</defs>
</svg>
