<svg width="56" height="47" viewBox="0 0 56 47" fill="none" xmlns="http://www.w3.org/2000/svg">
<g clip-path="url(#clip0_1_6283)">
<rect width="56" height="47" rx="2.95082" fill="#6633D1"/>
<rect width="87.1111" height="47" fill="black" fill-opacity="0.2"/>
<rect x="15.1194" y="4.08228" width="10.3667" height="9.82063" rx="1.23413" transform="rotate(90 15.1194 4.08228)" fill="url(#paint0_linear_1_6283)" stroke="#9F7E3B" stroke-width="0.164551"/>
<path d="M12.13 4.16455L12.13 6.96191C12.13 7.32543 11.8353 7.62012 11.4718 7.62012L9.72394 7.62012M5.41344 7.62012L7.31784 7.62012M7.31784 7.62012L9.72394 7.62012M7.31784 7.62012L7.31784 4.16455M9.72394 7.62012L9.72394 4.16455" stroke="#1B1B1B" stroke-width="0.164551"/>
<path d="M12.13 14.3667L12.13 11.0757M12.13 11.0757L9.72393 11.0757M12.13 11.0757L14.9969 11.0757M5.41343 11.0757L7.31784 11.0757M7.31784 11.0757L9.72393 11.0757M7.31784 11.0757L7.31783 14.3667M9.72393 11.0757L9.72393 14.3667" stroke="#1B1B1B" stroke-width="0.164551"/>
<path d="M3.88564 37.0291V36.6833H6.29995V37.0291H5.2877V39.9023H4.89789V37.0291H3.88564ZM6.60056 39.9023V37.488H6.95893V37.8527H6.98408C7.02809 37.7332 7.10773 37.6363 7.223 37.5619C7.33826 37.4875 7.4682 37.4503 7.61281 37.4503C7.64005 37.4503 7.67411 37.4508 7.71497 37.4519C7.75584 37.4529 7.78675 37.4545 7.80771 37.4566V37.8338C7.79514 37.8307 7.76632 37.826 7.72126 37.8197C7.67725 37.8124 7.63062 37.8087 7.58137 37.8087C7.46401 37.8087 7.35922 37.8333 7.26701 37.8826C7.17584 37.9308 7.10354 37.9978 7.0501 38.0838C6.9977 38.1686 6.97151 38.2656 6.97151 38.3745V39.9023H6.60056ZM8.95789 39.9589C8.8049 39.9589 8.66605 39.9301 8.54136 39.8725C8.41666 39.8138 8.31763 39.7294 8.24428 39.6194C8.17093 39.5083 8.13426 39.3742 8.13426 39.217C8.13426 39.0787 8.1615 38.9666 8.21599 38.8807C8.27048 38.7937 8.34331 38.7256 8.43447 38.6763C8.52564 38.6271 8.62623 38.5904 8.73626 38.5663C8.84734 38.5412 8.95894 38.5212 9.07106 38.5066C9.21776 38.4877 9.33669 38.4736 9.42786 38.4641C9.52007 38.4537 9.58714 38.4364 9.62905 38.4123C9.67201 38.3882 9.6935 38.3462 9.6935 38.2865V38.2739C9.6935 38.1189 9.65106 37.9984 9.56618 37.9124C9.48235 37.8265 9.35503 37.7835 9.18423 37.7835C9.00714 37.7835 8.86829 37.8223 8.7677 37.8999C8.6671 37.9774 8.59637 38.0602 8.5555 38.1482L8.20342 38.0225C8.26629 37.8758 8.35012 37.7615 8.45491 37.6798C8.56074 37.597 8.67601 37.5394 8.80071 37.5069C8.92645 37.4734 9.0501 37.4566 9.17165 37.4566C9.2492 37.4566 9.33827 37.466 9.43886 37.4849C9.54051 37.5027 9.63848 37.5399 9.73279 37.5965C9.82815 37.6531 9.90726 37.7385 9.97014 37.8527C10.033 37.9669 10.0644 38.1199 10.0644 38.3117V39.9023H9.6935V39.5754H9.67463C9.64949 39.6278 9.60757 39.6839 9.54889 39.7436C9.49021 39.8033 9.41214 39.8541 9.31469 39.8961C9.21724 39.938 9.0983 39.9589 8.95789 39.9589ZM9.01447 39.6257C9.16118 39.6257 9.28482 39.5969 9.38542 39.5393C9.48706 39.4816 9.56356 39.4072 9.61491 39.3161C9.6673 39.2249 9.6935 39.129 9.6935 39.0284V38.6889C9.67778 38.7078 9.6432 38.7251 9.58976 38.7408C9.53736 38.7554 9.47659 38.7685 9.40743 38.7801C9.33931 38.7905 9.27277 38.8 9.20781 38.8084C9.14389 38.8157 9.09202 38.822 9.0522 38.8272C8.95579 38.8398 8.86567 38.8602 8.78184 38.8885C8.69906 38.9158 8.632 38.9572 8.58065 39.0127C8.53035 39.0672 8.5052 39.1416 8.5052 39.2359C8.5052 39.3648 8.55288 39.4622 8.64824 39.5283C8.74464 39.5932 8.86672 39.6257 9.01447 39.6257ZM12.6293 37.488L11.7365 39.9023H11.3592L10.4664 37.488H10.8688L11.5353 39.4119H11.5604L12.2269 37.488H12.6293ZM14.0447 39.9526C13.812 39.9526 13.6114 39.9013 13.4427 39.7986C13.275 39.6949 13.1456 39.5503 13.0544 39.3648C12.9643 39.1783 12.9193 38.9614 12.9193 38.7141C12.9193 38.4668 12.9643 38.2488 13.0544 38.0602C13.1456 37.8705 13.2724 37.7228 13.4348 37.6169C13.5983 37.51 13.789 37.4566 14.0069 37.4566C14.1327 37.4566 14.2569 37.4776 14.3795 37.5195C14.5021 37.5614 14.6137 37.6295 14.7143 37.7238C14.8149 37.8171 14.895 37.9407 14.9548 38.0948C15.0145 38.2488 15.0443 38.4385 15.0443 38.6638V38.8209H13.1833V38.5003H14.6671C14.6671 38.3641 14.6399 38.2425 14.5854 38.1356C14.5319 38.0287 14.4554 37.9444 14.3559 37.8826C14.2574 37.8207 14.1411 37.7898 14.0069 37.7898C13.8592 37.7898 13.7314 37.8265 13.6234 37.8999C13.5165 37.9722 13.4343 38.0665 13.3767 38.1828C13.319 38.2991 13.2902 38.4238 13.2902 38.5569V38.7706C13.2902 38.953 13.3216 39.1075 13.3845 39.2343C13.4484 39.3601 13.537 39.4559 13.6501 39.522C13.7633 39.5869 13.8948 39.6194 14.0447 39.6194C14.1421 39.6194 14.2301 39.6058 14.3087 39.5785C14.3884 39.5503 14.457 39.5083 14.5146 39.4528C14.5723 39.3962 14.6168 39.326 14.6482 39.2422L15.0066 39.3428C14.9689 39.4643 14.9055 39.5712 14.8164 39.6634C14.7274 39.7546 14.6173 39.8258 14.4864 39.8772C14.3554 39.9275 14.2081 39.9526 14.0447 39.9526ZM15.9796 36.6833V39.9023H15.6086V36.6833H15.9796Z" fill="#EDEDED"/>
<path d="M24.5367 8.75572L24.5666 8.09241L24.007 8.45236L23.8357 8.15371L24.4298 7.85035L23.8357 7.54699L24.007 7.24835L24.5666 7.60829L24.5367 6.94499H24.8778L24.8479 7.60829L25.4075 7.24835L25.5788 7.54699L24.9847 7.85035L25.5788 8.15371L25.4075 8.45236L24.8479 8.09241L24.8778 8.75572H24.5367ZM26.8449 8.75572L26.8748 8.09241L26.3152 8.45236L26.1439 8.15371L26.738 7.85035L26.1439 7.54699L26.3152 7.24835L26.8748 7.60829L26.8449 6.94499H27.186L27.1561 7.60829L27.7157 7.24835L27.887 7.54699L27.2929 7.85035L27.887 8.15371L27.7157 8.45236L27.1561 8.09241L27.186 8.75572H26.8449ZM29.1531 8.75572L29.183 8.09241L28.6234 8.45236L28.4521 8.15371L29.0462 7.85035L28.4521 7.54699L28.6234 7.24835L29.183 7.60829L29.1531 6.94499H29.4942L29.4643 7.60829L30.0239 7.24835L30.1952 7.54699L29.6011 7.85035L30.1952 8.15371L30.0239 8.45236L29.4643 8.09241L29.4942 8.75572H29.1531ZM31.4613 8.75572L31.4912 8.09241L30.9316 8.45236L30.7603 8.15371L31.3544 7.85035L30.7603 7.54699L30.9316 7.24835L31.4912 7.60829L31.4613 6.94499H31.8024L31.7725 7.60829L32.3321 7.24835L32.5034 7.54699L31.9093 7.85035L32.5034 8.15371L32.3321 8.45236L31.7725 8.09241L31.8024 8.75572H31.4613ZM34.2666 10.1641V9.81198L35.3559 8.68341C35.4722 8.56081 35.5681 8.4534 35.6435 8.36119C35.72 8.26793 35.7771 8.17938 35.8149 8.09555C35.8526 8.01172 35.8714 7.92266 35.8714 7.82835C35.8714 7.72146 35.8463 7.62925 35.796 7.55171C35.7457 7.47312 35.6771 7.41286 35.5901 7.37095C35.5031 7.32799 35.4051 7.3065 35.2962 7.3065C35.1809 7.3065 35.0803 7.33008 34.9944 7.37724C34.9084 7.42439 34.8424 7.49093 34.7963 7.57686C34.7502 7.66278 34.7272 7.76338 34.7272 7.87864H34.2635C34.2635 7.68269 34.3085 7.51136 34.3986 7.36466C34.4888 7.21796 34.6124 7.10426 34.7696 7.02358C34.9268 6.94184 35.1054 6.90098 35.3056 6.90098C35.5078 6.90098 35.686 6.94132 35.84 7.02201C35.9951 7.10164 36.1161 7.21062 36.2031 7.34894C36.2901 7.48621 36.3335 7.6413 36.3335 7.8142C36.3335 7.93366 36.311 8.0505 36.266 8.16471C36.222 8.27893 36.1449 8.40625 36.0349 8.54667C35.9249 8.68603 35.7719 8.85526 35.5759 9.05436L34.9362 9.72395V9.74753H36.3854V10.1641H34.2666ZM38.1018 10.2081C37.886 10.2081 37.6932 10.1709 37.5234 10.0965C37.3547 10.0221 37.2211 9.91886 37.1226 9.78683C37.0251 9.65375 36.9728 9.49971 36.9654 9.32471H37.459C37.4653 9.42007 37.4972 9.50285 37.5549 9.57306C37.6135 9.64222 37.69 9.69566 37.7843 9.73339C37.8786 9.77111 37.9834 9.78997 38.0987 9.78997C38.2255 9.78997 38.3376 9.76797 38.4351 9.72395C38.5336 9.67994 38.6106 9.61864 38.6661 9.54005C38.7217 9.46041 38.7494 9.36872 38.7494 9.26498C38.7494 9.15705 38.7217 9.06222 38.6661 8.98049C38.6116 8.8977 38.5315 8.83274 38.4256 8.78558C38.3208 8.73843 38.1941 8.71485 38.0453 8.71485H37.7733V8.31875H38.0453C38.1647 8.31875 38.2695 8.29727 38.3596 8.25431C38.4508 8.21134 38.522 8.15162 38.5734 8.07512C38.6247 7.99758 38.6504 7.90694 38.6504 7.8032C38.6504 7.70365 38.6279 7.6172 38.5828 7.54385C38.5388 7.46945 38.4759 7.41129 38.3942 7.36938C38.3135 7.32746 38.2182 7.3065 38.1081 7.3065C38.0033 7.3065 37.9054 7.32589 37.8142 7.36466C37.7241 7.40238 37.6507 7.45687 37.5941 7.52813C37.5376 7.59834 37.5072 7.68269 37.503 7.78119H37.033C37.0382 7.60724 37.0896 7.45425 37.187 7.32222C37.2855 7.19019 37.4155 7.08697 37.5769 7.01257C37.7382 6.93818 37.9174 6.90098 38.1144 6.90098C38.3208 6.90098 38.499 6.94132 38.6488 7.02201C38.7997 7.10164 38.916 7.208 38.9978 7.34108C39.0806 7.47416 39.1214 7.61982 39.1204 7.77805C39.1214 7.95828 39.0711 8.11127 38.9695 8.23702C38.8689 8.36276 38.7348 8.44712 38.5671 8.49008V8.51523C38.7809 8.54771 38.9464 8.63259 39.0638 8.76986C39.1822 8.90713 39.2409 9.07741 39.2398 9.2807C39.2409 9.45779 39.1916 9.61655 39.0921 9.75696C38.9936 9.89738 38.8589 10.0079 38.6881 10.0886C38.5173 10.1683 38.3219 10.2081 38.1018 10.2081ZM40.8965 10.2081C40.6995 10.2081 40.5224 10.1703 40.3653 10.0949C40.2091 10.0184 40.0844 9.91362 39.9912 9.78054C39.8979 9.64746 39.8481 9.49552 39.8418 9.32471H40.3134C40.3249 9.46303 40.3862 9.57673 40.4973 9.6658C40.6084 9.75487 40.7414 9.7994 40.8965 9.7994C41.0202 9.7994 41.1297 9.77111 41.225 9.71452C41.3214 9.65689 41.3969 9.57778 41.4514 9.47718C41.5069 9.37658 41.5347 9.26184 41.5347 9.13295C41.5347 9.00197 41.5064 8.88513 41.4498 8.78244C41.3932 8.67975 41.3152 8.59906 41.2156 8.54038C41.1171 8.4817 41.0039 8.45183 40.8761 8.45078C40.7786 8.45078 40.6807 8.46755 40.5822 8.50108C40.4837 8.53461 40.404 8.57863 40.3432 8.63312L39.8984 8.5671L40.0792 6.94499H41.849V7.36152H40.4831L40.381 8.26217H40.3998C40.4627 8.20139 40.546 8.15057 40.6498 8.1097C40.7545 8.06883 40.8667 8.0484 40.9861 8.0484C41.1821 8.0484 41.3565 8.09503 41.5095 8.18829C41.6636 8.28155 41.7846 8.40887 41.8726 8.57024C41.9617 8.73057 42.0057 8.91499 42.0047 9.12352C42.0057 9.33205 41.9586 9.51805 41.8632 9.68152C41.7689 9.84498 41.6379 9.97387 41.4702 10.0682C41.3036 10.1614 41.1124 10.2081 40.8965 10.2081Z" fill="white"/>
<g clip-path="url(#clip1_1_6283)">
<path d="M6.04943 28.7188H4.54123C4.4913 28.7187 4.443 28.733 4.40503 28.7591C4.36706 28.7851 4.34193 28.8212 4.33415 28.8609L3.72416 31.9686C3.72136 31.983 3.72248 31.9978 3.72744 32.0118C3.73241 32.0259 3.7411 32.0389 3.75292 32.05C3.76474 32.061 3.77941 32.0699 3.79592 32.076C3.81242 32.0821 3.83038 32.0853 3.84854 32.0852H4.56857C4.61853 32.0852 4.66686 32.0709 4.70483 32.0448C4.7428 32.0187 4.76792 31.9826 4.77565 31.9429L4.94016 31.1047C4.94789 31.0651 4.97297 31.029 5.0109 31.0029C5.04882 30.9768 5.0971 30.9624 5.14702 30.9624H5.62447C6.61795 30.9624 7.19133 30.5761 7.34107 29.8105C7.40855 29.4756 7.34393 29.2125 7.14877 29.0282C6.93441 28.8258 6.55422 28.7188 6.04943 28.7188ZM6.22342 29.8538C6.14095 30.2887 5.72745 30.2887 5.32763 30.2887H5.10005L5.25971 29.4765C5.26438 29.4527 5.27946 29.4311 5.30222 29.4155C5.32498 29.3999 5.35393 29.3913 5.38387 29.3913H5.48818C5.76053 29.3913 6.01745 29.3913 6.15021 29.516C6.22938 29.5905 6.25364 29.701 6.22342 29.8538ZM10.5577 29.8398H9.83548C9.80554 29.8398 9.77659 29.8484 9.75383 29.864C9.73107 29.8796 9.71599 29.9013 9.71132 29.925L9.67934 30.0874L9.62884 30.0285C9.47249 29.8462 9.12383 29.7852 8.77583 29.7852C7.97774 29.7852 7.29608 30.2709 7.16332 30.9523C7.0943 31.2922 7.19243 31.6172 7.43237 31.8439C7.65245 32.0523 7.96737 32.1391 8.34205 32.1391C8.98511 32.1391 9.34171 31.8068 9.34171 31.8068L9.30951 31.9681C9.30664 31.9825 9.3077 31.9973 9.31261 32.0113C9.31751 32.0254 9.32615 32.0384 9.33793 32.0495C9.34971 32.0606 9.36435 32.0696 9.38084 32.0757C9.39733 32.0818 9.41528 32.085 9.43345 32.0851H10.084C10.134 32.0851 10.1823 32.0707 10.2203 32.0446C10.2582 32.0186 10.2834 31.9824 10.2911 31.9428L10.6814 29.9564C10.6843 29.942 10.6833 29.9273 10.6784 29.9133C10.6735 29.8992 10.6648 29.8862 10.6531 29.8751C10.6413 29.8641 10.6267 29.8551 10.6102 29.849C10.5938 29.8429 10.5758 29.8398 10.5577 29.8398ZM9.55099 30.9693C9.48131 31.3009 9.15382 31.5235 8.73614 31.5235C8.52641 31.5235 8.35881 31.4694 8.25119 31.367C8.14446 31.2653 8.10388 31.1205 8.13784 30.9592C8.2029 30.6305 8.5359 30.4007 8.94718 30.4007C9.15228 30.4007 9.319 30.4554 9.42882 30.5587C9.53886 30.6631 9.58253 30.8088 9.55099 30.9693ZM14.4042 29.8398H13.6784C13.6442 29.8398 13.6105 29.8466 13.5803 29.8595C13.55 29.8723 13.5241 29.891 13.5049 29.9137L12.5039 31.0985L12.0796 29.9599C12.0666 29.9252 12.04 29.8948 12.0037 29.8731C11.9675 29.8515 11.9236 29.8398 11.8785 29.8398H11.1653C11.1452 29.8397 11.1255 29.8435 11.1077 29.8509C11.0899 29.8582 11.0745 29.8688 11.0628 29.8819C11.0511 29.895 11.0435 29.9101 11.0406 29.926C11.0377 29.9419 11.0395 29.9582 11.046 29.9734L11.8454 31.8586L11.0938 32.7111C11.0805 32.7263 11.0725 32.744 11.0709 32.7625C11.0693 32.781 11.074 32.7995 11.0846 32.816C11.0952 32.8325 11.1112 32.8463 11.131 32.8559C11.1507 32.8655 11.1733 32.8706 11.1964 32.8706H11.9212C11.9551 32.8707 11.9884 32.8641 12.0184 32.8515C12.0484 32.8389 12.0742 32.8207 12.0935 32.7983L14.5074 29.9984C14.5205 29.9832 14.5282 29.9655 14.5296 29.9471C14.531 29.9287 14.5262 29.9103 14.5155 29.894C14.5049 29.8777 14.4889 29.864 14.4693 29.8544C14.4496 29.8449 14.4271 29.8398 14.4042 29.8398Z" fill="white"/>
<path d="M16.8073 28.7189H15.2989C15.249 28.7189 15.2007 28.7333 15.1628 28.7593C15.1249 28.7854 15.0998 28.8214 15.092 28.8611L14.482 31.9688C14.4792 31.9832 14.4803 31.9979 14.4852 32.0119C14.4901 32.026 14.4988 32.039 14.5105 32.0501C14.5223 32.0611 14.5369 32.07 14.5534 32.0761C14.5699 32.0822 14.5878 32.0854 14.606 32.0854H15.38C15.4149 32.0854 15.4487 32.0753 15.4752 32.0571C15.5017 32.0388 15.5193 32.0135 15.5247 31.9858L15.6978 31.1049C15.7055 31.0653 15.7306 31.0291 15.7685 31.0031C15.8065 30.977 15.8547 30.9626 15.9046 30.9626H16.3819C17.3756 30.9626 17.9487 30.5763 18.0987 29.8107C18.1664 29.4758 18.1013 29.2126 17.9062 29.0283C17.692 28.826 17.3121 28.7189 16.8073 28.7189ZM16.9813 29.854C16.899 30.2888 16.4855 30.2888 16.0855 30.2888H15.8581L16.018 29.4767C16.0226 29.4529 16.0376 29.4313 16.0603 29.4156C16.0831 29.4 16.112 29.3914 16.1419 29.3914H16.2462C16.5184 29.3914 16.7755 29.3914 16.9083 29.5162C16.9874 29.5906 17.0115 29.7012 16.9813 29.854ZM21.3153 29.84H20.5935C20.5636 29.8399 20.5346 29.8485 20.5119 29.8641C20.4892 29.8797 20.4742 29.9014 20.4696 29.9252L20.4376 30.0875L20.3869 30.0287C20.2306 29.8463 19.8821 29.7854 19.5341 29.7854C18.736 29.7854 18.0546 30.2711 17.9218 30.9525C17.853 31.2924 17.9507 31.6174 18.1907 31.844C18.4112 32.0524 18.7257 32.1393 19.1003 32.1393C19.7434 32.1393 20.1 31.807 20.1 31.807L20.0678 31.9683C20.0649 31.9827 20.066 31.9975 20.0709 32.0116C20.0759 32.0257 20.0845 32.0387 20.0964 32.0498C20.1082 32.061 20.1229 32.0699 20.1394 32.076C20.156 32.0821 20.174 32.0853 20.1922 32.0852H20.8425C20.8925 32.0852 20.9407 32.0709 20.9786 32.0448C21.0166 32.0187 21.0417 31.9826 21.0494 31.9429L21.4399 29.9566C21.4427 29.9421 21.4416 29.9274 21.4366 29.9134C21.4316 29.8993 21.4229 29.8863 21.411 29.8752C21.3992 29.8642 21.3845 29.8553 21.368 29.8492C21.3515 29.8431 21.3335 29.8399 21.3153 29.84ZM20.3086 30.9695C20.2394 31.3011 19.9115 31.5236 19.4938 31.5236C19.2845 31.5236 19.1164 31.4696 19.0088 31.3672C18.9021 31.2655 18.8619 31.1207 18.8955 30.9594C18.961 30.6307 19.2935 30.4008 19.7048 30.4008C19.9099 30.4008 20.0766 30.4556 20.1865 30.5589C20.2969 30.6633 20.3406 30.809 20.3086 30.9695ZM22.1668 28.8042L21.5478 31.9688C21.5449 31.9832 21.546 31.9979 21.5509 32.0119C21.5559 32.026 21.5645 32.039 21.5763 32.0501C21.5881 32.0611 21.6027 32.07 21.6192 32.0761C21.6357 32.0822 21.6536 32.0854 21.6717 32.0854H22.2941C22.3975 32.0854 22.4853 32.0252 22.5011 31.9431L23.1116 28.8355C23.1144 28.8211 23.1133 28.8064 23.1084 28.7924C23.1035 28.7783 23.0948 28.7653 23.083 28.7542C23.0713 28.7431 23.0566 28.7342 23.0402 28.7281C23.0237 28.722 23.0058 28.7188 22.9876 28.7188H22.2907C22.2608 28.7188 22.2319 28.7275 22.2092 28.7431C22.1865 28.7588 22.1715 28.7804 22.1668 28.8042Z" fill="white"/>
</g>
</g>
<defs>
<linearGradient id="paint0_linear_1_6283" x1="15.2016" y1="4" x2="27.3194" y2="11.4553" gradientUnits="userSpaceOnUse">
<stop stop-color="#E6AC3C"/>
<stop offset="1" stop-color="#FFDA93"/>
</linearGradient>
<clipPath id="clip0_1_6283">
<rect width="56" height="47" rx="2.95082" fill="white"/>
</clipPath>
<clipPath id="clip1_1_6283">
<rect width="19.5326" height="5.90164" fill="white" transform="translate(3.67188 27.5234)"/>
</clipPath>
</defs>
</svg>
